<svg xmlns="http://www.w3.org/2000/svg" viewBox="0 0 300 300">
    <defs>
        <linearGradient id="gradient" x1="30" x2="220" y1="250" y2="15" gradientUnits="userSpaceOnUse">
            <stop offset="0" stop-color="">
                <animate attributeName="stop-color" repeatCount="indefinite"
                         values="#e8b71d;#e3e81d;#1de840;#1ddde8;#2b1de8;#dd00f3;#dd00f3;#ff2400;#e81d1d" dur="2s"/>
            </stop>
            <stop offset=".5" stop-color="">
                <animate attributeName="stop-color" repeatCount="indefinite"
                         values="#e81d1d;#e8b71d;#e3e81d;#1de840;#1ddde8;#2b1de8;#dd00f3;#dd00f3;#ff2400" dur="2s"/>
            </stop>
            <stop offset="1" stop-color="">
                <animate attributeName="stop-color" repeatCount="indefinite"
                         values="#ff2400;#e81d1d;#e8b71d;#e3e81d;#1de840;#1ddde8;#2b1de8;#dd00f3;#dd00f3" dur="2s"/>
            </stop>
        </linearGradient>
    </defs>
    <path fill="url(#gradient)"
          d="M66.061 194.92c0-1.016-.09-2.033.02-3.04.399-3.889.748-7.777 1.316-11.646.499-3.35 1.147-6.7 1.984-9.98.798-3.132 1.865-6.193 2.932-9.244a76.424 76.424 0 0 1 2.792-6.82c1.495-3.21 3.01-6.43 4.746-9.532a361.387 361.387 0 0 1 8.076-13.67c1.805-2.92 3.799-5.723 5.763-8.534 3.18-4.547 6.411-9.044 9.602-13.59a1324.74 1324.74 0 0 0 8.644-12.484 102.528 102.528 0 0 0 8.316-14.647c.907-1.974 1.745-3.978 2.602-5.962.608-1.406.08-2.652-.688-3.769-2.114-3.061-4.885-5.504-7.787-7.817a47.037 47.037 0 0 0-11.037-6.57c-3.36-1.407-6.86-2.483-10.3-3.71-3.14-1.117-6.322-2.124-9.383-3.41-.997-.419-1.994-1.426-2.432-2.403-.908-2.044.428-3.978 2.911-4.307 3.031-.399 6.092-.539 9.123-.897 3.27-.39 6.551-.808 9.791-1.426 2.513-.479 5.046-1.057 7.399-2.014 2.642-1.087 5.125-2.593 7.607-4.029.977-.568.2-.957-.389-1.216-1.515-.678-3.11-1.206-4.526-2.034-1.276-.748-2.443-1.735-3.51-2.772-1.017-.977-.758-2.592.549-3.16 1.665-.718 3.43-1.207 5.154-1.765 1.576-.509 3.181-.918 4.726-1.516.44-.17.748-.788 1.037-1.246a37.75 37.75 0 0 0 1.526-2.603c.2-.378.369-.837.369-1.256 0-3.37 1.127-6.411 2.752-9.303.359-.628.887-1.236.997-1.914.12-.728-.06-1.545-.29-2.263-.288-.908-.937-1.735-1.086-2.652-.21-1.277.548-1.845 1.834-1.695 4.069.468 7.947 1.615 11.676 3.27 3.26 1.446 6.531 2.901 9.781 4.357.4.18.788.429 1.137.698 1.695 1.306 3.64 2.074 5.604 2.872 1.405.568 2.831 1.415 3.858 2.492 2.802 2.952 6.192 5.065 9.502 7.359 2.882 2.004 5.464 4.477 7.947 6.96 2.084 2.093 1.476 4.336-1.366 5.174-2.732.808-5.075 2.044-7.04 4.098-.657.688-.707 1.186-.259 2.014 1.656 3.041 3.34 6.072 4.796 9.213 1.396 3.031 2.583 6.162 3.76 9.293 1.096 2.951 2.043 5.962 3.08 8.943.738 2.134 1.516 4.258 2.284 6.382.897 2.502 1.754 5.025 2.722 7.508.877 2.263 1.734 4.536 2.821 6.7 1.805 3.61 3.66 7.209 5.733 10.659 2.872 4.785 5.963 9.442 8.974 14.148 2.652 4.158 5.374 8.296 7.967 12.493 2.442 3.949 4.915 7.907 7.119 11.995 2.323 4.297 4.427 8.714 6.46 13.161a111.691 111.691 0 0 1 3.84 9.652c1.126 3.24 2.073 6.55 2.95 9.861.818 3.08 1.616 6.192 2.105 9.333.598 3.868.937 7.787 1.226 11.695.22 3.021.23 6.062.24 9.093 0 3.83-.44 7.608-1.995 11.158-1.266 2.881-3.23 4.277-5.883 2.652-1.146-.698-2.193-2.064-2.612-3.35-1.087-3.29-1.755-6.71-2.672-10.05-.658-2.374-1.426-4.707-2.194-7.05-.628-1.914-1.276-3.829-1.994-5.713a248.893 248.893 0 0 0-2.951-7.408 298.651 298.651 0 0 0-3.011-6.87c-.878-1.945-1.805-3.879-2.702-5.813-1.037-2.224-1.945-4.527-3.151-6.66-1.037-1.845-2.353-3.55-3.68-5.205-.597-.748-1.664-1.077-2.552-.469-.857.588-1.136 1.546-.797 2.592 1.146 3.58 2.343 7.14 3.43 10.729 1.037 3.44 1.994 6.9 2.94 10.37.679 2.492 1.337 5.005 1.905 7.527.808 3.59 1.655 7.17 2.254 10.799.777 4.746 1.216 9.552 1.974 14.298 1.017 6.37.738 12.772.488 19.143-.169 4.298-.897 8.605-1.734 12.843a43.144 43.144 0 0 1-4.517 12.373c-2.134 3.889-4.268 7.787-6.162 11.796-.848 1.794-1.436 3.848-1.585 5.822-.3 3.989 1.585 6.96 5.105 8.934 1.914 1.067 3.818 2.144 5.663 3.31 1.884 1.197 3.08 2.982 3.829 5.046.409 1.136-.489 1.565-1.286 1.595-1.735.06-3.5.04-5.215-.2-3.041-.418-6.112-.917-8.615 1.347-1.266 1.146-2.074 2.791-3.24 4.078-.898.997-1.905 2.113-3.091 2.602-2.094.867-3.979-.04-5.424-2.134a87.471 87.471 0 0 1-1.895-2.831c-1.406-2.264-3.59-3.101-6.112-3.171-2.572-.07-5.155.03-7.727-.04-.818-.02-1.625-.349-2.443-.538.23-.918.17-2.094.728-2.712 1.286-1.416 2.802-2.663 4.357-3.8 1.954-1.435 4.118-2.592 6.052-4.057 2.304-1.735 2.443-2.782.848-5.135-1.615-2.383-3.929-3.989-6.62-4.956-5.694-2.044-11.537-1.974-17.42-1.017-3.738.618-7.517 1.107-11.197 2.004-3.709.908-7.318 2.224-10.947 3.41-.599.2-1.137.629-1.636 1.047-1.156.967-1.276 1.486-.538 2.842 1.097 2.024 2.383 3.958 3.36 6.042.818 1.735 1.605 3.63.479 5.554-.27.459-.828.957-1.316 1.047-2.204.369-4.378.688-6.68.409-2.763-.34-5.664-.529-8.356.538-1.257.499-2.413 1.316-3.5 2.154-1.386 1.057-2.612 2.313-3.968 3.42-1.586 1.296-3.37 2.074-5.504 1.974-1.486-.07-2.084-.539-2.244-1.974-.09-.848-.13-1.695-.249-2.533-.399-2.732-1.505-3.889-4.646-3.779-1.625.06-3.25.429-4.866.36-.957-.04-1.894-.649-2.841-1.008.528-.818.887-1.894 1.635-2.393 1.396-.937 3.03-1.515 4.536-2.303 2.982-1.556 5.933-3.17 8.924-4.706 1.436-.738 2.951-1.336 4.427-2.014.808-.37 1.645-.698 2.393-1.167 1.994-1.266 2.004-3.07.02-4.497-4.018-2.901-7.747-6.112-10.5-10.24a81.22 81.22 0 0 1-4.735-8.036c-1.227-2.393-2.353-4.896-3.131-7.458-1.127-3.75-2.014-7.568-2.772-11.407-.668-3.36-1.107-6.78-1.466-10.19-.299-2.851-.438-5.733-.498-8.594-.08-3.85-.09-7.698 0-11.546.09-3.88.11-7.788.578-11.626.818-6.74 1.945-13.43 2.962-20.151.398-2.632.837-5.265 1.206-7.907.06-.419-.05-.887-.18-1.306-.468-1.496-1.405-1.835-2.442-.668-.997 1.117-1.895 2.443-2.463 3.819-1.496 3.659-2.852 7.378-4.128 11.127-.798 2.323-1.376 4.726-1.994 7.11-.638 2.462-1.187 4.945-1.795 7.407-1.316 5.385-1.775 10.848-1.635 16.392.03 1.386-.23 2.812-.548 4.178-.818 3.46-4.088 3.769-6.402 1.595-1.595-1.505-2.562-3.41-3.34-5.434-1.166-3.05-1.645-6.241-1.894-9.472-.17-2.114-.419-4.228-.638-6.341.04-.03.11-.04.18-.04Zm37.829 22.166c.28 6.072.738 12.094 1.765 18.096.827 4.816 2.074 9.443 4.467 13.74 2.084 3.759 5.005 6.74 8.904 8.525 4.297 1.974 8.824 2.722 13.68 2.194 6.41-.688 12.463-2.882 18.754-3.989 2.932-.518 5.863-1.027 8.824-1.316 4.347-.419 8.515.748 12.663 1.805 3.25.827 6.471 1.446 9.861.748 3.44-.698 6.242-2.383 8.356-5.065 3.24-4.098 4.606-8.944 5.304-14.01.26-1.874.568-3.768.548-5.653a247.36 247.36 0 0 0-.468-13.041c-.17-2.653-.559-5.305-1.007-7.937-.589-3.51-1.247-7.01-2.014-10.48-.619-2.791-1.446-5.543-2.184-8.315-.678-2.532-1.376-5.065-2.044-7.597-.738-2.812-1.506-5.614-2.164-8.446-.488-2.084-.827-4.207-1.226-6.311-.678-3.61-1.446-7.209-2.004-10.838-.519-3.4-.878-6.82-1.167-10.25a984.675 984.675 0 0 1-1.316-17.987c-.17-2.623-.15-5.255-.25-7.887-.069-1.934-.029-3.899-.328-5.803-.618-3.948-1.376-7.877-2.194-11.785-.658-3.151-2.064-6.033-3.809-8.725-2.402-3.699-5.623-6.52-9.531-8.634-3.83-2.074-7.887-3.24-12.225-3.41-5.723-.22-11.187.777-16.282 3.52-3.54 1.904-6.48 4.436-8.914 7.607-2.582 3.37-4.686 6.99-6.171 10.958-1.586 4.227-3.3 8.415-4.637 12.722-1.595 5.135-2.961 10.34-4.217 15.565-1.287 5.384-2.413 10.808-3.45 16.252-1.197 6.311-2.333 12.643-3.28 19.004-.748 4.995-1.327 10.03-1.676 15.066-.379 5.444-.468 10.918-.568 16.372-.07 5.095 0 10.2 0 15.305Zm28.177-174.807c-.19 4.587 3.57 7.688 8.086 7.618 4.886-.07 7.698-2.842 7.877-7.279.19-4.576-3.39-8.076-7.936-7.986-4.717.09-8.206 2.881-8.027 7.647Z"/>
    <path fill="url(#gradient)"
          d="M164.372 101.884c0 1.785.02 3.56-.01 5.344-.02 1.177-.329 1.287-1.426.888-2.053-.758-4.157-1.366-6.221-2.094-1.835-.648-3.69-1.266-5.434-2.114-1.187-.568-2.284-.618-3.41-.18-2.842 1.098-5.644 2.264-8.465 3.4-.978.39-1.965.778-2.962 1.137-.747.27-1.226-.03-1.256-.817-.04-1.007-.01-2.024.01-3.031.06-2.623.12-5.255.21-7.877.02-.499.169-.987.249-1.476.438.13.877.26 1.316.4 1.077.358 2.163.697 3.23 1.086 2.004.748 4.068 1.376 5.983 2.323 2.552 1.266 4.925 1.177 7.438-.08 1.765-.887 3.66-1.525 5.514-2.203 1.256-.459 2.572-.758 3.828-1.217 1.057-.379 1.356-.279 1.386.818.05 1.894.02 3.789.02 5.693ZM138.877 40.435c.01 1.326-.907 2.482-1.984 2.502-1.306.02-2.393-1.106-2.403-2.482-.01-1.316 1.007-2.393 2.283-2.423 1.047-.02 2.094 1.176 2.104 2.403Z"/>
</svg>
