<svg xmlns="http://www.w3.org/2000/svg" xmlns:xlink="http://www.w3.org/1999/xlink" viewBox="0 0 512 512" width="350px"
     height="350px" class="img-fluid mb-3">
    <defs>
        <linearGradient id="OYgUyNjocE5tCCup-ya0-a" x1="30.322" x2="520.436" y1="508.379" y2="18.265"
                        gradientUnits="userSpaceOnUse">
            <stop offset="0" stop-color="">
                <animate attributeName="stop-color"
                         values="#e8b71d;#e3e81d;#1de840;#1ddde8;#2b1de8;#dd00f3;#dd00f3;#ff2400;#e81d1d" dur="2s"
                         repeatCount="indefinite"/>
            </stop>
            <stop offset=".5" stop-color="">
                <animate attributeName="stop-color"
                         values="#e81d1d;#e8b71d;#e3e81d;#1de840;#1ddde8;#2b1de8;#dd00f3;#dd00f3;#ff2400" dur="2s"
                         repeatCount="indefinite"/>
            </stop>
            <stop offset="1" stop-color="">
                <animate attributeName="stop-color"
                         values="#ff2400;#e81d1d;#e8b71d;#e3e81d;#1de840;#1ddde8;#2b1de8;#dd00f3;#dd00f3" dur="2s"
                         repeatCount="indefinite"/>
            </stop>
        </linearGradient>
        <linearGradient id="OYgUyNjocE5tCCup-ya0-b" x1="66.145" x2="556.258" y1="544.201" y2="54.087"
                        xlink:href="#OYgUyNjocE5tCCup-ya0-a"/>
        <linearGradient id="OYgUyNjocE5tCCup-ya0-c" x1="-81.612" x2="408.501" y1="396.444" y2="-93.67"
                        xlink:href="#OYgUyNjocE5tCCup-ya0-a"/>
        <linearGradient id="OYgUyNjocE5tCCup-ya0-d" x1="-7.028" x2="483.086" y1="471.028" y2="-19.086"
                        xlink:href="#OYgUyNjocE5tCCup-ya0-a"/>
        <linearGradient id="OYgUyNjocE5tCCup-ya0-e" x1="-21.613" x2="468.501" y1="456.443" y2="-33.67"
                        xlink:href="#OYgUyNjocE5tCCup-ya0-a"/>
    </defs>
    <path fill="url(#OYgUyNjocE5tCCup-ya0-a)"
          d="M495.95,381.21a8.007,8.007,0,0,0-10.71-7.24c-22.82,8.22-49.53,12.57-77.24,12.57-8.1,0-16.14-.37-24-1.11V168A159.99,159.99,0,0,0,224,8C135.78,8,64,79.78,64,168V296.68A48.069,48.069,0,0,0,24,344v24a40.04,40.04,0,0,0,40,40,41.29,41.29,0,0,0,4.17-.22c9.31,26.22,34.03,49.9,70.54,67.31C177.79,493.73,227.97,504,280,504c34.59,0,67.62-4.35,98.16-12.92C450.85,470.69,496,429.66,496,384,496,383.06,495.98,382.14,495.95,381.21Zm-44.24,55.64c-18.86,16.4-45.79,29.83-77.87,38.83C345.11,483.74,312.66,488,280,488c-49.69,0-97.43-9.71-134.41-27.35-32.39-15.44-54.17-35.74-62.16-57.7a40.185,40.185,0,0,0,8.86-6.66A39.766,39.766,0,0,0,104,368v-4a4,4,0,0,1,4-4h12a8,8,0,0,0,0-16H108a20.02,20.02,0,0,0-20,20v4a24,24,0,0,1-48,0V344a32.03,32.03,0,0,1,32-32h48a8,8,0,0,0,0-16H80V168C80,88.6,144.6,24,224,24A144.012,144.012,0,0,1,368,168V392.61a8,8,0,0,0,7.02,7.94A270.469,270.469,0,0,0,408,402.54a254.616,254.616,0,0,0,71.27-9.79C476.69,408.21,467.29,423.31,451.71,436.85Z"/>
    <path fill="url(#OYgUyNjocE5tCCup-ya0-b)"
          d="M264,312h48a8,8,0,0,0,0-16H264a48.055,48.055,0,0,0-48,48v24a40,40,0,0,0,80,0v-4a4,4,0,0,1,4-4h12a8,8,0,0,0,0-16H300a20.023,20.023,0,0,0-20,20v4a24,24,0,0,1-48,0V344A32.036,32.036,0,0,1,264,312Z"/>
    <path fill="url(#OYgUyNjocE5tCCup-ya0-c)"
          d="M175.7,168h.3a8,8,0,0,0,0-16H112a8,8,0,0,0,0,16h.3c2.089,27.86,15.013,48,31.7,48S173.608,195.86,175.7,168ZM144,200c-5.779,0-13.87-12.234-15.643-32h31.286C157.87,187.766,149.779,200,144,200Z"/>
    <path fill="url(#OYgUyNjocE5tCCup-ya0-d)"
          d="M240,272a8,8,0,0,0,5-14.247c-29.438-23.55-60.558-23.55-90,0a8,8,0,1,0,10,12.494c23.879-19.1,46.125-19.1,70,0A7.969,7.969,0,0,0,240,272Z"/>
    <path fill="url(#OYgUyNjocE5tCCup-ya0-e)"
          d="M296,152H232a8,8,0,0,0,0,16h.3c2.09,27.86,15.02,48,31.7,48s29.61-20.14,31.7-48h.3a8,8,0,0,0,0-16Zm-32,48c-5.78,0-13.87-12.23-15.64-32h31.28C277.87,187.77,269.78,200,264,200Z"/>

</svg>
